<svg xmlns="http://www.w3.org/2000/svg" viewBox="0 0 16 16"><defs><style>.cls-1{fill:#fff;}</style></defs><title>mail2000</title><g id="Layer_2" data-name="Layer 2"><g id="Layer_1-2" data-name="Layer 1"><path class="cls-1" d="M8,0a8,8,0,1,0,8,8A8,8,0,0,0,8,0Zm5.08,11.06a.4.4,0,0,1-.4.4H3.32a.4.4,0,0,1-.4-.4V4.94a.4.4,0,0,1,.4-.4h9.36a.4.4,0,0,1,.4.4Z"/><polygon class="cls-1" points="11.4 5.34 4.6 5.34 8 7.69 11.4 5.34"/><path class="cls-1" d="M8,8.58a.39.39,0,0,1-.23-.07l-4-2.81v5h8.56v-5l-4,2.81A.39.39,0,0,1,8,8.58Z"/></g></g></svg>