<svg xmlns="http://www.w3.org/2000/svg" viewBox="0 0 201 62"><defs><style>.cls-1{opacity:0.5;}.cls-2{fill:#2c93c6;}</style></defs><title>Asset 122000</title><g id="Layer_2" data-name="Layer 2"><g id="Layer_1-2" data-name="Layer 1"><g class="cls-1"><circle class="cls-2" cx="6" cy="6" r="6"/><circle class="cls-2" cx="6" cy="31" r="6"/><circle class="cls-2" cx="6" cy="56" r="6"/><circle class="cls-2" cx="33" cy="6" r="6"/><circle class="cls-2" cx="33" cy="31" r="6"/><circle class="cls-2" cx="33" cy="56" r="6"/><circle class="cls-2" cx="60" cy="6" r="6"/><circle class="cls-2" cx="60" cy="31" r="6"/><circle class="cls-2" cx="60" cy="56" r="6"/><circle class="cls-2" cx="87" cy="6" r="6"/><circle class="cls-2" cx="87" cy="31" r="6"/><circle class="cls-2" cx="87" cy="56" r="6"/><circle class="cls-2" cx="114" cy="6" r="6"/><circle class="cls-2" cx="114" cy="31" r="6"/><circle class="cls-2" cx="114" cy="56" r="6"/><circle class="cls-2" cx="141" cy="6" r="6"/><circle class="cls-2" cx="141" cy="31" r="6"/><circle class="cls-2" cx="141" cy="56" r="6"/><circle class="cls-2" cx="168" cy="6" r="6"/><circle class="cls-2" cx="168" cy="31" r="6"/><circle class="cls-2" cx="168" cy="56" r="6"/><circle class="cls-2" cx="195" cy="6" r="6"/><circle class="cls-2" cx="195" cy="31" r="6"/><circle class="cls-2" cx="195" cy="56" r="6"/></g></g></g></svg>