<svg xmlns="http://www.w3.org/2000/svg" xmlns:xlink="http://www.w3.org/1999/xlink" viewBox="0 0 1441 806"><defs><style>.cls-1{opacity:0.5;}.cls-2{fill:#2c93c6;}.cls-3{fill:#11537c;opacity:0.7;}.cls-4,.cls-5,.cls-6{opacity:0.32;}.cls-4{fill:url(#linear-gradient);}.cls-5{fill:url(#linear-gradient-2);}.cls-6{fill:url(#linear-gradient-3);}</style><linearGradient id="linear-gradient" x1="2623" y1="-2693" x2="2792" y2="-2693" gradientTransform="translate(3315 -1900) rotate(180)" gradientUnits="userSpaceOnUse"><stop offset="0.35" stop-color="#fff" stop-opacity="0"/><stop offset="0.87" stop-color="#618da8" stop-opacity="0.53"/><stop offset="0.87" stop-color="#5b88a5" stop-opacity="0.63"/><stop offset="1" stop-color="#11537c" stop-opacity="0.92"/></linearGradient><linearGradient id="linear-gradient-2" x1="-2368" y1="-769" x2="-2199" y2="-769" gradientTransform="translate(3471 784)" xlink:href="#linear-gradient"/><linearGradient id="linear-gradient-3" x1="3898" y1="-4438.5" x2="3992" y2="-4438.5" gradientTransform="translate(4086 -4415) rotate(180)" xlink:href="#linear-gradient"/></defs><title>symbols</title><g id="Layer_2" data-name="Layer 2"><g id="Layer_1-2" data-name="Layer 1"><g class="cls-1"><circle class="cls-2" cx="1143" cy="602" r="6"/><circle class="cls-2" cx="1143" cy="627" r="6"/><circle class="cls-2" cx="1143" cy="652" r="6"/><circle class="cls-2" cx="1170" cy="602" r="6"/><circle class="cls-2" cx="1170" cy="627" r="6"/><circle class="cls-2" cx="1170" cy="652" r="6"/><circle class="cls-2" cx="1197" cy="602" r="6"/><circle class="cls-2" cx="1197" cy="627" r="6"/><circle class="cls-2" cx="1197" cy="652" r="6"/><circle class="cls-2" cx="1224" cy="602" r="6"/><circle class="cls-2" cx="1224" cy="627" r="6"/><circle class="cls-2" cx="1224" cy="652" r="6"/><circle class="cls-2" cx="1251" cy="602" r="6"/><circle class="cls-2" cx="1251" cy="627" r="6"/><circle class="cls-2" cx="1251" cy="652" r="6"/><circle class="cls-2" cx="1278" cy="602" r="6"/><circle class="cls-2" cx="1278" cy="627" r="6"/><circle class="cls-2" cx="1278" cy="652" r="6"/><circle class="cls-2" cx="1305" cy="602" r="6"/><circle class="cls-2" cx="1305" cy="627" r="6"/><circle class="cls-2" cx="1305" cy="652" r="6"/><circle class="cls-2" cx="1332" cy="602" r="6"/><circle class="cls-2" cx="1332" cy="627" r="6"/><circle class="cls-2" cx="1332" cy="652" r="6"/></g><rect class="cls-3" x="354" y="780" width="169" height="26"/><rect class="cls-4" x="523" y="780" width="169" height="26"/><rect class="cls-3" x="1272" y="2" width="169" height="26"/><rect class="cls-5" x="1103" y="2" width="169" height="26"/><rect class="cls-3" width="94" height="47"/><rect class="cls-6" x="94" width="94" height="47"/></g></g></svg>